<svg width="30" height="24" viewBox="0 0 30 24" fill="none" xmlns="http://www.w3.org/2000/svg">
<g id="Group">
<path id="Vector" d="M7.83327 19C6.16964 19 4.57415 18.3679 3.39779 17.2426C2.22142 16.1174 1.56055 14.5913 1.56055 13C1.56055 11.4087 2.22142 9.88258 3.39779 8.75736C4.57415 7.63214 6.16964 7 7.83327 7C8.22619 5.24957 9.37563 3.71131 11.0287 2.72362C11.8473 2.23456 12.7648 1.8954 13.729 1.72548C14.6931 1.55557 15.6851 1.55824 16.6481 1.73333C17.6111 1.90843 18.5264 2.25252 19.3417 2.74597C20.1569 3.23942 20.8562 3.87256 21.3996 4.60924C21.943 5.34591 22.3199 6.17171 22.5087 7.03946C22.6975 7.90722 22.6945 8.79994 22.4999 9.66666H23.8333C25.071 9.66666 26.2579 10.1583 27.1331 11.0335C28.0083 11.9087 28.4999 13.0957 28.4999 14.3333C28.4999 15.571 28.0083 16.758 27.1331 17.6332C26.2579 18.5083 25.071 19 23.8333 19H22.4999" stroke="#2563EB" stroke-width="2" stroke-linecap="round" stroke-linejoin="round"/>
<path id="Vector_2" d="M10.5 15L14.5 11L18.5 15" stroke="#2563EB" stroke-width="2" stroke-linecap="round" stroke-linejoin="round"/>
<path id="Vector_3" d="M14.5 11V23" stroke="#2563EB" stroke-width="2" stroke-linecap="round" stroke-linejoin="round"/>
</g>
</svg>
